<?xml version="1.0" encoding="utf-8"?>
<!-- Generator: Adobe Illustrator 16.0.3, SVG Export Plug-In . SVG Version: 6.00 Build 0)  -->
<!DOCTYPE svg PUBLIC "-//W3C//DTD SVG 1.1//EN" "http://www.w3.org/Graphics/SVG/1.1/DTD/svg11.dtd">
<svg version="1.1" id="Layer_1" xmlns="http://www.w3.org/2000/svg" xmlns:xlink="http://www.w3.org/1999/xlink" x="0px" y="0px"
	 width="1000.06px" height="600.09px" viewBox="0 0 1000.06 600.09" enable-background="new 0 0 1000.06 600.09"
	 xml:space="preserve">
<path fill="#FFFFFF" d="M457.988,380.329c1.212-0.695,2.957-2.257,5.233-4.687c2.593-2.766,5.229-5.791,7.908-9.077
	c2.683-3.285,5.103-6.396,7.265-9.339c2.162-2.941,3.414-4.931,3.763-5.972l5.402,29.074h53.224
	c0.963-0.278,2.068-0.866,3.315-1.755c1.815-1.297,3.635-2.769,5.449-4.411c1.815-1.642,3.5-3.326,5.058-5.058
	c1.56-1.734,2.594-3.111,3.111-4.149l93.392-119.33v-0.779c0,0.164,0.151-0.361,0.457-1.573H541.418
	c-1.211,0.695-2.958,2.257-5.232,4.685c-2.595,2.769-5.229,5.794-7.911,9.079c-2.681,3.285-5.101,6.397-7.263,9.339
	c-2.163,2.942-3.413,4.931-3.762,5.972l-5.404-29.074h-53.223c-0.963,0.28-2.069,0.866-3.316,1.756
	c-1.814,1.297-3.634,2.768-5.449,4.409c-1.814,1.641-3.501,3.328-5.059,5.058c-1.558,1.733-2.594,3.113-3.111,4.149l-93.389,119.332
	v0.779c0-0.165-0.154,0.36-0.459,1.571H457.988L457.988,380.329z M569.908,277.791v2.598l-42.737,57.232l-9.204-59.83H569.908z
	 M429.497,343.213l42.736-57.234l9.205,59.83h-51.941V343.213z"/>
</svg>
