<?xml version="1.0" encoding="utf-8"?>
<!-- Generator: Adobe Illustrator 16.0.3, SVG Export Plug-In . SVG Version: 6.00 Build 0)  -->
<!DOCTYPE svg PUBLIC "-//W3C//DTD SVG 1.1//EN" "http://www.w3.org/Graphics/SVG/1.1/DTD/svg11.dtd">
<svg version="1.1" id="Layer_1" xmlns="http://www.w3.org/2000/svg" xmlns:xlink="http://www.w3.org/1999/xlink" x="0px" y="0px"
	 width="1000.059px" height="600.09px" viewBox="0 0 1000.059 600.09" enable-background="new 0 0 1000.059 600.09"
	 xml:space="preserve">
<path fill="#FFFFFF" d="M401.969,499.602c3.135-1.803,7.651-5.84,13.539-12.121c6.711-7.162,13.531-14.988,20.467-23.49
	c6.938-8.504,13.198-16.555,18.793-24.166c5.598-7.61,8.835-12.758,9.735-15.446l13.981,75.225h137.713
	c2.49-0.723,5.354-2.238,8.578-4.543c4.697-3.357,9.402-7.162,14.098-11.408c4.697-4.248,9.061-8.608,13.092-13.09
	c4.029-4.482,6.711-8.053,8.051-10.732l241.643-308.765v-2.016c0,0.423,0.396-0.934,1.184-4.07H617.838
	c-3.135,1.802-7.65,5.839-13.537,12.122c-6.713,7.162-13.531,14.988-20.469,23.49c-6.936,8.501-13.197,16.553-18.793,24.165
	c-5.596,7.611-8.834,12.758-9.734,15.448l-13.98-75.225H403.61c-2.491,0.724-5.353,2.239-8.58,4.544
	c-4.696,3.356-9.402,7.162-14.098,11.408c-4.696,4.246-9.06,8.609-13.09,13.089c-4.031,4.481-6.711,8.051-8.051,10.733
	l-241.64,308.764v2.016c0-0.424-0.398,0.935-1.185,4.07h285.003V499.602z M691.559,234.29v6.721l-110.58,148.091L557.165,234.29
	H691.559z M328.25,403.566l110.578-148.09l23.817,154.811H328.25V403.566z"/>
</svg>
